<?xml version="1.0" encoding="UTF-8"?>
<svg id="Layer_2" xmlns="http://www.w3.org/2000/svg" viewBox="0 0 105.15 49.82">
  <g id="Layer_1-2" data-name="Layer_1">
    <g>
      <path d="M23.06,30.21h-4.67c-.72,0-1.36-.42-1.7-1.06l-4.46-8.91c-.13,0-.3.04-.42.04h-4.16v8.4c0,.85-.68,1.53-1.49,1.53H1.93c-.85,0-1.53-.68-1.53-1.53V2.04C.4,1.19,1.08.51,1.93.51h9.89c7.55,0,11.41,4.29,11.41,10.27,0,3.52-1.74,6.24-4.58,7.85l5.39,9.89c.42.76-.13,1.7-.98,1.7ZM7.66,14.17h4.16c2.12,0,4.07-.89,4.07-3.39,0-2.21-1.66-3.44-4.07-3.44h-4.16v6.83Z"/>
      <path d="M56.16,15.36c0,8.83-6.32,15.4-15.1,15.4s-15.11-6.58-15.11-15.4S32.27,0,41.06,0s15.1,6.58,15.1,15.36ZM48.87,15.36c0-4.2-2.63-8.36-7.81-8.36s-7.81,4.16-7.81,8.36,2.63,8.4,7.81,8.4,7.81-4.2,7.81-8.4Z"/>
      <path d="M86.47.51h4.88c.81,0,1.49.68,1.49,1.53v26.65c0,.85-.68,1.53-1.49,1.53h-4.29c-.81,0-1.49-.68-1.49-1.53V12.56l-7.3,12.01c-.3.47-.76.72-1.32.72h-.98c-.51,0-1.02-.25-1.27-.72l-7.3-12.01v16.13c0,.85-.68,1.53-1.53,1.53h-4.24c-.85,0-1.53-.68-1.53-1.53V2.04c0-.85.68-1.53,1.53-1.53h4.84c.81,0,1.53.42,1.95,1.1l8.02,13.2,8.06-13.2c.42-.68,1.15-1.1,1.95-1.1Z"/>
      <path d="M99.37.51h4.24c.85,0,1.53.68,1.53,1.53v26.65c0,.85-.68,1.53-1.53,1.53h-4.24c-.85,0-1.53-.68-1.53-1.53V2.04c0-.85.68-1.53,1.53-1.53Z"/>
      <path d="M11.1,35.65h2.21c.36,0,.63.36.51.73l-4.64,12.83c-.12.36-.47.61-.85.61h-2.81c-.38,0-.73-.24-.85-.61L.03,36.38c-.12-.36.14-.73.53-.73h2.19c.4,0,.75.26.87.63l3.32,10.55,3.3-10.55c.12-.36.46-.63.87-.63Z"/>
      <path d="M23.4,49.2l-.63-2.03h-5.36l-.63,2.03c-.12.36-.46.63-.87.63h-2.21c-.36,0-.63-.36-.51-.73l4.64-12.85c.12-.35.47-.59.85-.59h2.81c.38,0,.73.24.85.59l4.62,12.85c.14.36-.12.73-.51.73h-2.18c-.41,0-.75-.26-.87-.63ZM21.94,44.56l-1.86-5.91-1.84,5.91h3.7Z"/>
      <path d="M37.62,35.65h2.05c.38,0,.71.32.71.73v12.71c0,.4-.32.73-.71.73h-1.74c-.36,0-.71-.18-.89-.49l-5.22-7.77v7.53c0,.4-.32.73-.71.73h-2.05c-.4,0-.73-.32-.73-.73v-12.71c0-.4.32-.73.73-.73h1.74c.36,0,.69.18.89.49l5.2,7.77v-7.53c0-.4.32-.73.73-.73Z"/>
      <path d="M59.91,42.74c0,4.33-2.79,7.08-7.51,7.08h-4.25c-.38,0-.71-.32-.71-.73v-12.71c0-.4.33-.73.71-.73h4.25c4.72,0,7.51,2.75,7.51,7.08ZM56.45,42.74c0-2.51-1.74-3.82-4.05-3.82h-1.5v7.63h1.5c2.31,0,4.05-1.3,4.05-3.81Z"/>
      <path d="M70.39,49.2l-.63-2.03h-5.36l-.63,2.03c-.12.36-.47.63-.87.63h-2.21c-.36,0-.63-.36-.51-.73l4.64-12.85c.12-.35.46-.59.85-.59h2.81c.38,0,.73.24.85.59l4.61,12.85c.14.36-.12.73-.51.73h-2.19c-.4,0-.75-.26-.87-.63ZM68.93,44.56l-1.86-5.91-1.84,5.91h3.7Z"/>
      <path d="M83.49,46.54c.4,0,.73.32.73.73v1.82c0,.4-.33.73-.73.73h-7.45c-.4,0-.73-.32-.73-.73v-12.71c0-.4.32-.73.73-.73h7.27c.4,0,.73.32.73.73v1.82c0,.38-.33.71-.73.71h-4.53v2.21h3.89c.4,0,.73.32.73.73v1.64c0,.4-.32.73-.73.73h-3.89v2.33h4.72Z"/>
      <path d="M93.97,46.54c.38,0,.71.32.71.73v1.82c0,.4-.32.73-.71.73h-7.33c-.38,0-.71-.32-.71-.73v-12.71c0-.4.32-.73.71-.73h2.05c.38,0,.71.32.71.73v10.16h4.57Z"/>
      <path d="M104.39,46.54c.4,0,.73.32.73.73v1.82c0,.4-.33.73-.73.73h-7.45c-.41,0-.73-.32-.73-.73v-12.71c0-.4.32-.73.73-.73h7.27c.4,0,.73.32.73.73v1.82c0,.38-.33.71-.73.71h-4.53v2.21h3.89c.4,0,.73.32.73.73v1.64c0,.4-.32.73-.73.73h-3.89v2.33h4.72Z"/>
    </g>
  </g>
</svg>